<?xml version="1.0" encoding="UTF-8"?><svg id="b" xmlns="http://www.w3.org/2000/svg" viewBox="0 0 208.56 45.78"><defs><style>#c path {fill:#FAFAFB;}</style></defs><g id="c"><path d="m59.82,12.84c-1.02-2.76-.84-4.92,2.34-4.92.78,0,2.4.06,3.36.3l1.74-7.26c-1.62-.3-4.08-.42-5.7-.42-10.38,0-10.86,8.52-8.52,14.76l6.9,18.42c1.32,3.48.78,5.04-2.16,5.04-1.26,0-3.72-.24-5.04-.54l-1.62,6.9c1.68.36,4.56.66,7.08.66,11.52,0,10.56-9.06,8.04-15.78l-6.42-17.16Zm-12.96,28.62c-2.64,0-2.76-1.5-2.76-12.72s.12-12.6,2.7-12.6c.84,0,1.62.12,2.34.3l1.02-4.26c-.9-.24-2.28-.36-3.72-.36-2.16,0-3.96.6-4.92,1.74-1.86,2.22-1.92,5.94-1.92,15.06s.06,13.32,2.04,15.48c1.08,1.02,2.82,1.5,4.68,1.5,1.56,0,2.94-.24,3.9-.6l-.96-3.9c-.78.24-1.68.36-2.4.36ZM8.64,11.7c-1.62,0-3.48.42-4.32,1.62V0H0v45.3l3.72.18.42-1.44c.9,1.2,2.4,1.62,4.32,1.62,1.62,0,2.94-.48,3.84-1.5,1.44-1.68,1.5-4.92,1.5-15.54s0-13.8-1.5-15.42c-.78-.96-2.04-1.5-3.66-1.5Zm-1.68,29.88c-2.52,0-2.58-1.74-2.58-12.78s.06-12.72,2.58-12.72,2.4,1.44,2.4,12.72,0,12.78-2.4,12.78ZM30.9,11.7c-2.28,0-4.08.6-5.1,1.74-1.92,2.22-1.92,6.06-1.92,15.18s0,13.38,2.04,15.42c1.08,1.08,2.88,1.62,4.98,1.62,2.22,0,4.02-.54,4.98-1.62,1.98-2.1,1.98-5.94,1.98-15.42s0-12.9-1.86-15.06c-1.02-1.2-2.88-1.86-5.1-1.86Zm0,29.88c-2.58,0-2.58-1.26-2.58-12.84s0-12.66,2.58-12.66,2.52,1.44,2.52,12.66,0,12.84-2.52,12.84Zm-10.08-2.46V0h-4.44v39.24c0,4.08.6,6.18,4.68,6.18.24,0,1.32,0,1.62-.06v-4.26h-.54c-1.14,0-1.32-.36-1.32-1.98Zm89.76,6.24h7.26V11.4h-7.26v33.96Zm58.44-34.38c-3.18,0-5.64.78-6.9,2.28-2.28,2.7-2.28,7.44-2.28,15.06s0,12.96,2.58,15.48c1.32,1.2,3.78,1.92,6.6,1.92,3.06,0,5.52-.66,6.78-1.98,2.34-2.46,2.34-7.14,2.34-15.42,0-7.62,0-12.3-2.16-14.94-1.26-1.5-3.78-2.4-6.96-2.4Zm0,28.08c-1.92,0-1.92-.78-1.92-10.5s0-10.38,1.92-10.38,1.92.78,1.92,10.38.06,10.5-1.92,10.5Zm33.84-28.08c-2.1,0-4.74.42-5.82,1.92-.78-1.32-1.98-1.92-4.8-1.92-3.18,0-4.98.84-5.64,2.04l-.3-1.68-6.18.3v33.72h7.14v-22.68c0-3.84.66-4.5,2.04-4.5,1.26,0,1.44.42,1.44,3.54v23.64h7.14v-22.68c0-3.84.66-4.5,2.04-4.5,1.2,0,1.44.42,1.44,3.54v23.64h7.2v-26.46c0-4.74-.78-7.92-5.7-7.92Zm-47.4,27.9c-2.28,0-2.46-.66-2.46-10.32s.18-10.26,2.4-10.26c.84,0,1.8.06,2.64.3l1.56-7.08c-1.08-.3-3.12-.42-4.92-.42-3.18,0-5.58.84-6.84,2.28-2.16,2.7-2.28,7.26-2.28,14.94s.12,12.9,2.64,15.42c1.26,1.2,3.6,1.86,6.24,1.86,1.98,0,3.96-.24,5.22-.66l-1.44-6.42c-.84.24-2.1.36-2.76.36ZM78.78,10.98c-3.18,0-5.64.78-6.9,2.28-2.28,2.7-2.28,7.44-2.28,15.06s0,12.96,2.58,15.48c1.32,1.2,3.78,1.92,6.6,1.92,3.06,0,5.52-.66,6.78-1.98,2.34-2.46,2.34-7.14,2.34-15.42,0-7.62,0-12.3-2.16-14.94-1.26-1.5-3.78-2.4-6.96-2.4Zm0,28.08c-1.92,0-1.92-.78-1.92-10.5s0-10.38,1.92-10.38,1.92.78,1.92,10.38.06,10.5-1.92,10.5Zm57.3,6.3h7.92v-9.6h-7.92v9.6ZM102.18,10.98c-3.6,0-5.16.96-5.82,1.98l-.3-1.62-6.18.3v33.72h7.2v-23.28c0-3.3.72-3.9,2.1-3.9,1.2,0,1.5.42,1.5,3.54v23.64h7.26v-26.46c0-4.74-.78-7.92-5.76-7.92Zm27.6,27.9c-2.28,0-2.46-.66-2.46-10.32s.18-10.26,2.4-10.26c.84,0,1.8.06,2.64.3l1.56-7.08c-1.08-.3-3.12-.42-4.92-.42-3.18,0-5.58.84-6.84,2.28-2.16,2.7-2.28,7.26-2.28,14.94s.12,12.9,2.64,15.42c1.26,1.2,3.6,1.86,6.24,1.86,1.98,0,3.96-.24,5.22-.66l-1.44-6.42c-.84.24-2.1.36-2.76.36Z"/></g></svg>