<?xml version="1.0" encoding="UTF-8"?><svg id="b" xmlns="http://www.w3.org/2000/svg" viewBox="0 0 100.8 433.44"><defs><style>.e{opacity:0;} #d {fill:#FAFAFB;}</style></defs><g id="c"><rect class="e" width="100.8" height="433.44"/><path id="d" d="m33.87,124.88c2.44,0,2.52-1.23,3.12-6.92.23-2.06.38-3.55.38-4.53,0-1.84-.5-2.67-2.27-2.67-2.39,0-2.52,1.36-3.1,6.85-.18,1.61-.38,3.75-.38,4.63,0,1.89.5,2.64,2.24,2.64Zm-.43-7.15c.5-4.93.53-5.56,1.61-5.56.65,0,.88.3.88,1.36,0,.81-.13,2.16-.35,4.35-.53,5.13-.55,5.66-1.66,5.66-.63,0-.88-.28-.88-1.31,0-.81.18-2.21.4-4.51Zm-8.63-12.01l-2.01,19,1.21.08.25-.5c.25.38.81.58,1.56.58.58,0,.96-.1,1.36-.5.7-.68.86-2.21,1.31-6.47.28-2.44.43-3.93.43-4.88,0-1.69-.63-2.27-1.74-2.27-.7,0-1.26.18-1.54.5l.58-5.54h-1.41Zm1.81,6.44c.6,0,.83.2.83,1.23,0,.81-.15,2.16-.4,4.43-.53,5.18-.55,5.71-1.61,5.71-.6,0-.86-.3-.86-1.38,0-.86.15-2.21.38-4.38.5-4.73.58-5.61,1.66-5.61Zm54.06,67.42c-.54.06-.65-.12-.73-.85l-2.13-20.29-2.88.3,2.14,20.35c.26,2.44.76,3.57,3.16,3.32.16-.02.89-.09,1.07-.14l-.29-2.72-.35.04Zm-4.87-69.19l-1.51,14.35h4.42l.23-2.23h-2.03l1.28-12.12h-2.38Zm-37.93,320.31c.07-.15.16-.29.27-.4.11-.12.24-.21.39-.28.15-.07.3-.1.46-.1.15,0,.29.03.42.09.13.06.24.16.32.29h.65c-.03-.15-.09-.28-.17-.4-.09-.12-.19-.22-.31-.3-.12-.08-.25-.14-.4-.19-.14-.04-.29-.06-.45-.06-.19,0-.37.03-.56.1-.19.07-.36.16-.51.28s-.29.25-.41.41c-.12.16-.21.32-.28.5-.04.11-.07.22-.1.32-.02.1-.03.21-.03.31,0,.11.01.22.04.32.03.1.06.2.11.3.1.19.23.34.4.46.11.08.23.14.37.18.14.04.28.06.43.06.21,0,.43-.04.65-.12.22-.08.41-.19.57-.33.17-.14.3-.3.39-.46h-.66c-.12.11-.26.2-.41.27-.15.06-.3.1-.43.1-.08,0-.15,0-.22-.02-.06-.02-.12-.04-.18-.07-.1-.05-.18-.11-.25-.18-.04-.04-.07-.09-.09-.13-.02-.04-.04-.09-.06-.15-.02-.05-.03-.11-.04-.15s-.01-.1-.01-.15c0-.08.01-.16.03-.24.02-.07.05-.14.08-.23Zm40.47-9.08h-1.55l-.18.98c-.09-.23-.23-.44-.44-.62-.21-.18-.47-.32-.78-.42-.31-.1-.65-.15-1.02-.15-.34,0-.68.05-1.02.15-.19.05-.36.12-.52.19-.16.07-.32.16-.48.27-.33.21-.64.48-.95.83-.3.35-.57.76-.8,1.22-.11.25-.2.52-.27.81-.06.29-.1.59-.1.9s.02.59.07.85c.05.25.12.47.2.64.17.36.38.66.62.89.24.23.53.4.84.51.32.11.65.17.99.17.5,0,.99-.11,1.47-.32.49-.21.9-.5,1.23-.86l-.17.96h1.53l1.31-7Zm-2.3,3.75c-.05.2-.13.39-.24.58-.21.37-.51.68-.89.91-.21.13-.4.22-.6.29-.19.06-.39.1-.6.1-.25,0-.47-.04-.67-.11-.2-.08-.39-.19-.57-.35-.18-.16-.31-.32-.4-.51-.09-.18-.14-.38-.14-.61,0-.45.11-.88.34-1.29.23-.41.53-.72.9-.95.21-.13.41-.22.61-.28.2-.06.42-.09.65-.09.26,0,.5.04.7.13.2.09.38.2.52.34.14.14.25.32.34.53.08.21.12.43.12.66s-.03.45-.08.65Zm5.26-1.85c.32-.32.72-.48,1.2-.48l.29-1.62c-.3,0-.57.04-.8.13s-.42.19-.56.3c-.16.13-.3.27-.42.42l.11-.65h-1.52l-1.3,7h1.67l.68-3.72c.11-.6.33-1.06.65-1.38Zm-5.79-227.81c.52.39,1.51.55,2.6.43,1.2-.13,2.15-.47,2.55-1.01.78-.99.6-2.7.34-5.21-.23-2.19-.41-3.93-1.31-4.84-.52-.53-1.55-.76-2.81-.63-1.24.13-2.18.53-2.6,1.16-.71,1.08-.53,2.86-.3,5.05.25,2.37.44,4.23,1.52,5.06Zm1.69-8.28c.52-.05.53.09.83,2.92.3,2.83.33,2.97-.21,3.02-.5.05-.51-.09-.81-2.92-.3-2.85-.31-2.97.19-3.02Zm7.67-.81c.24-.03.38,0,.48.94l.8,7.61,3.01-.32-.93-8.83c-.17-1.63-.63-2.71-2.38-2.53-1.38.14-1.91.62-2.09,1.01l-.19-.67-2.58.41,1.19,11.34,2.99-.31-.8-7.57c-.1-.98.17-1.05.49-1.08ZM18.58,432.52l.22-1.21.6,1.21h.71l-.63-1.15c.2-.03.37-.1.52-.22.15-.12.27-.26.35-.42.08-.16.13-.3.13-.42,0-.1,0-.19-.03-.28-.02-.08-.04-.16-.07-.22-.07-.13-.18-.23-.33-.3-.15-.07-.35-.1-.6-.1h-.86l-.58,3.11h.58Zm.47-2.55h.33c.15,0,.27.03.37.08.1.05.15.14.15.27v.08c-.03.13-.08.24-.15.31-.08.07-.16.12-.25.15-.09.02-.17.04-.24.04h-.37l.16-.92Zm51.2-235.77c-.52.05-.88.03-1.29,0l-.35,2.76c.79.06,1.37.04,2.51-.08,3.37-.35,3.6-3.3,2.03-5.43l-1.86-2.51c-.35-.47-.32-.91.28-.98.4-.04.78-.02,1.01.01l.36-2.94c-.31-.03-1.08-.07-2.01.03-3.29.35-3.74,3.34-2.1,5.5l1.87,2.6c.35.47.18.97-.44,1.03Zm-29.35-82.01c.3,0,.55.05.83.13l.48-1.33c-.38-.13-.76-.2-1.36-.2-2.29,0-2.44,1.33-3.02,6.82-.18,1.74-.38,3.7-.38,4.61,0,1.61.38,2.64,2.11,2.64.5,0,.93-.08,1.26-.18l-.2-1.26c-.28.08-.6.1-.86.1-.68,0-.86-.5-.86-1.36,0-.78.2-2.62.38-4.4.5-4.91.58-5.56,1.61-5.56Zm12.66,10.33h-2.03l1.28-12.12h-2.38l-1.51,14.35h4.42l.23-2.23Zm-8.48,2.33c2.82,0,3.1-1.46,3.6-6.17l.5-4.66h-3.47l-.25,2.19h1.26l-.28,2.52c-.4,3.6-.38,4.13-1.28,4.13-.68,0-.91-.33-.91-1.51s.2-3.02.5-5.94c.68-6.52.7-7.15,2.19-7.15.81,0,1.38.13,1.81.25l.73-2.16c-.63-.2-1.56-.35-2.64-.35-1.23,0-2.06.23-2.59.78-1.08,1.08-1.28,3.6-1.79,8.43-.3,2.72-.5,4.73-.5,6.14,0,2.67.58,3.5,3.12,3.5Zm48.22,58.79c-.69,1.08-.55,2.8-.32,5.01.25,2.37.48,4.18,1.54,5.02.5.39,1.43.56,2.48.44.74-.08,1.55-.24,2.01-.43l-.88-2.63c-.29.11-.76.2-.96.22-.7.07-.76.02-1.06-2.83-.29-2.79-.25-2.92.41-2.99.3-.03.66-.05.97,0l.33-3.04c-.41-.06-1.23-.01-1.93.06-1.26.13-2.16.55-2.58,1.16Zm-61.23-77.92h-1.43l-1.76,16.74c-.13,1.51.08,2.32,1.51,2.32.08,0,.38,0,.48-.03l.13-1.38h-.23c-.45,0-.5-.15-.43-.93l1.74-16.71Zm37.98-10.02c4.16-2.64,7.34-6.27,10.2-10.25.18-.25.13-.6-.12-.79-.25-.19-.61-.14-.8.11-2.88,3.78-6.03,7.21-10.08,9.63-4.05,2.43-8.57,4.06-13.21,4.78-4.64.74-9.42.58-13.97-.47-4.56-1.05-8.9-2.98-12.72-5.65,0,0-.02-.01-.03-.02-.61-.4-1.44-.23-1.84.38s-.23,1.44.38,1.84h0c4.17,2.75,8.86,4.68,13.73,5.67,4.87.99,9.92,1.02,14.78.12,4.86-.89,9.54-2.72,13.69-5.36Zm-3.06,25.29c.1-.81.15-1.49.15-2.03,0-.93-.19-1.47-.77-1.67.89-.37,1.07-1.51,1.24-3.14.06-.5.1-1.03.1-1.43,0-1.49-.54-2.32-2.67-2.32h-2.75l-1.51,14.35h3.2c2.01,0,2.73-1.01,3.02-3.76Zm-2.6-8.37h.39c.43,0,.58.15.58.74,0,.27-.02.56-.08,1.2-.15,1.47-.25,1.8-.85,1.8h-.43l.39-3.74Zm-1.03,9.96l.39-3.89h.43c.45,0,.62.19.62.79,0,.23-.06.89-.1,1.2-.17,1.67-.23,1.9-.87,1.9h-.46Zm-31.81,141.79c1.25-2.64,2.8-5.15,4.65-7.41.92-1.13,1.92-2.19,2.99-3.18-.87-.5-1.74-1-2.61-1.51-.8-.46-1.59-.93-2.38-1.4-1.09.78-2.13,1.63-3.09,2.56-2.42,2.35-4.39,5.17-5.79,8.23,2.03.9,4.07,1.77,6.1,2.65l.13.06Zm29.54-2.22c-.03.12-.07.24-.1.36,2.5.89,5.02,1.72,7.55,2.5.61.19,1.23.37,1.85.55-.03-.82-.09-1.63-.2-2.45-.39-2.96-1.3-5.87-2.87-8.43-.8-1.27-1.76-2.44-2.88-3.44-.66-.58-1.36-1.11-2.11-1.57,0,0,0,.01,0,.02.19.63.26,1.25.3,1.86.06,1.23-.03,2.42-.17,3.61-.29,2.37-.79,4.69-1.38,6.99Zm-1.09,28.79c.94-.9,1.82-1.86,2.64-2.87,1.58-1.94,2.93-4.08,4.06-6.33l-4.45-2.1c-2.08-.98-4.17-1.96-6.26-2.92-.78,1.78-1.6,3.54-2.47,5.28-.78,1.56-1.61,3.09-2.47,4.61,2.31,1.06,4.6,2.16,6.88,3.29.69.34,1.38.69,2.08,1.04Zm-4.37-38.43c-1.47,1.79-2.76,3.73-3.98,5.72-.09.14-.17.29-.25.43,1.39.63,2.79,1.24,4.2,1.82,1.31.52,2.62,1.02,3.94,1.51.03-.08.05-.16.08-.25.68-2.22,1.27-4.47,1.64-6.74.17-1.13.3-2.28.28-3.4-.02-.56-.07-1.11-.21-1.61-.14-.5-.38-.92-.7-1.06-.32-.15-.8-.06-1.27.18-.47.23-.92.56-1.35.92-.86.73-1.64,1.59-2.38,2.47Zm-37.63,20.97c0,17.89,14.51,32.4,32.4,32.4s32.4-14.51,32.4-32.4-14.51-32.4-32.4-32.4-32.4,14.51-32.4,32.4Zm15.49-24.08s0,0,0,0c1.86-1.31,3.88-2.41,6-3.24,3.52-1.42,7.32-2.14,11.12-2.1,3.81.03,7.61.82,11.12,2.3,3.52,1.48,6.75,3.66,9.46,6.37,2.71,2.71,4.9,5.97,6.38,9.53.77,1.85,1.34,3.77,1.72,5.74,0,0,0,0,0,0,.05.28.1.56.15.84,0,.02,0,.04.01.07.04.27.08.55.12.82,0,.01,0,.02,0,.03.16,1.26.25,2.54.25,3.81,0,1.94-.21,3.89-.6,5.79-.4,1.91-.98,3.77-1.74,5.57-1.53,3.58-3.78,6.88-6.58,9.61-1.32,1.28-2.76,2.43-4.29,3.45,0,0,0,0,0,0-1.73,1.15-3.59,2.12-5.52,2.89-3.65,1.42-7.58,2.14-11.51,2.05-3.92-.09-7.81-.98-11.38-2.55-1.78-.8-3.48-1.77-5.07-2.9-1.59-1.13-3.05-2.43-4.38-3.84-2.64-2.85-4.69-6.22-6.01-9.82-.94-2.56-1.52-5.24-1.72-7.94h0c-.08-1.11-.11-2.22-.06-3.32.06-1.9.32-3.8.75-5.65.42-1.85,1.03-3.66,1.81-5.39,2.13-4.86,5.64-9.07,9.97-12.12Zm6.53,3.63c.97-.84,2-1.63,3.08-2.33,2.6-1.71,5.52-2.98,8.61-3.52,2.51-.44,5.13-.33,7.59.39-2.78-1.03-5.74-1.61-8.71-1.69-3.56-.1-7.15.53-10.49,1.81-1.77.69-3.46,1.57-5.05,2.61.67.38,1.34.76,2.01,1.14.98.54,1.97,1.08,2.96,1.6Zm-17.05,19.56c0,1.33.11,2.65.32,3.96.8.24,1.59.48,2.39.73.81.25,1.62.5,2.43.75.06-1.4.21-2.8.44-4.17.26-1.55.64-3.07,1.1-4.57.4-1.31.88-2.59,1.42-3.85l-.12-.05c-2.03-.88-4.06-1.77-6.09-2.64-.58,1.48-1.04,3-1.36,4.55-.36,1.74-.53,3.52-.53,5.29Zm5.11,6.7c-.92-.3-1.83-.61-2.75-.9-.6-.19-1.2-.37-1.8-.55.36,1.74.89,3.43,1.58,5.06,1.37,3.24,3.39,6.18,5.87,8.62.05.05.1.1.15.14-1.49-2.6-2.36-5.48-2.77-8.37-.19-1.33-.27-2.67-.27-4.01Zm-3.27,34.75l-2.01,19,1.21.08.25-.5c.25.38.81.58,1.56.58.58,0,.96-.1,1.36-.5.7-.68.86-2.21,1.31-6.47.28-2.44.43-3.93.43-4.88,0-1.69-.63-2.27-1.74-2.27-.7,0-1.26.18-1.54.5l.58-5.54h-1.41Zm1.81,6.44c.6,0,.83.2.83,1.23,0,.81-.15,2.16-.4,4.43-.53,5.18-.55,5.71-1.61,5.71-.6,0-.86-.3-.86-1.38,0-.86.15-2.21.38-4.38.5-4.73.58-5.61,1.66-5.61Zm3.61,103.31v-.15c0-.35-.06-.67-.18-.95-.12-.28-.29-.52-.51-.71-.22-.19-.47-.33-.75-.42-.28-.09-.57-.14-.89-.14-.14,0-.29.01-.43.03-.14.02-.28.05-.43.09-.29.08-.57.2-.82.34-.28.16-.53.35-.74.57-.2-.34-.47-.6-.82-.77-.34-.17-.71-.26-1.1-.26-.37,0-.74.08-1.1.24-.36.16-.64.36-.83.62l.11-.65h-1.55l-1.27,7h1.67l.76-4.09c.07-.32.19-.59.35-.81.16-.22.36-.39.6-.51.24-.12.47-.18.7-.18.32,0,.58.1.79.31.21.21.31.5.31.9,0,.13-.01.26-.04.39l-.74,3.98h1.68l.74-4.06c.04-.3.15-.57.34-.81.18-.23.4-.41.65-.54.25-.12.49-.18.72-.18.31,0,.56.09.75.28.19.19.29.47.29.84l-.02.35-.77,4.11h1.7l.81-4.46c.02-.08.02-.2.02-.36Zm48.97,6.19c.07-.04.14-.06.22-.06.08,0,.15.03.2.08.05.05.08.13.08.24h.6v-.1c0-.18-.04-.33-.12-.45-.08-.12-.19-.2-.32-.25-.13-.05-.27-.08-.42-.08-.14.01-.27.05-.39.11-.12.06-.22.13-.3.23-.04.05-.08.1-.11.15-.03.05-.06.11-.09.17-.05.11-.08.24-.1.39,0,.06,0,.11.02.16.01.05.03.11.06.16.05.1.13.18.23.25.1.07.22.12.37.16.14.03.25.09.31.17.07.08.1.16.1.26,0,.08-.02.15-.07.23-.04.08-.1.14-.17.18-.07.04-.15.07-.23.07-.12,0-.22-.03-.28-.08-.06-.05-.1-.13-.1-.23,0,0,0-.02,0-.04v-.04h-.6v.09s-.02.07-.02.07c0,.11.02.22.07.31.05.1.11.18.19.26.08.07.17.13.28.16.11.04.22.06.35.06.18-.02.34-.06.48-.13.15-.07.27-.16.37-.27.1-.11.18-.24.24-.38.05-.14.08-.28.08-.43,0-.1-.02-.18-.05-.25s-.07-.13-.13-.19c-.1-.1-.25-.19-.45-.27-.2-.08-.32-.14-.39-.17-.06-.04-.09-.1-.09-.2,0-.04,0-.08.03-.14.02-.08.07-.14.14-.18Zm-49.39-.02l.11-.56h-1.68l-.58,3.11h1.68l.1-.56h-1.09l.14-.71h1.05l.1-.56h-1.04l.12-.72h1.1Zm6.35-5.2c.12-.55.35-.98.68-1.28.33-.3.69-.46,1.07-.46.21,0,.41.05.58.15.18.1.31.25.42.44.1.19.15.42.15.7,0,.13-.01.26-.04.4l-.72,3.9h1.67l.76-4.11c0-.08.02-.19.03-.32.01-.13.02-.27.02-.42,0-.5-.1-.94-.3-1.29-.2-.36-.46-.62-.79-.8-.33-.18-.69-.26-1.1-.26-.38,0-.75.08-1.13.23-.37.15-.7.37-.99.65l.11-.67h-1.55l-1.27,7h1.67l.71-3.85Zm3.21-141.37c-.35-.14-.71-.29-1.06-.43-2.14-.83-4.28-1.65-6.45-2.4-.71-.25-1.42-.49-2.13-.73.08,1.06.21,2.12.41,3.16.56,2.92,1.64,5.72,3.28,8.11,1.1,1.59,2.46,2.96,4.02,4.03-.04-.34-.07-.68-.08-1.01-.03-1.27.11-2.48.29-3.67.38-2.38,1-4.68,1.69-6.94.01-.04.02-.07.03-.11Zm18.01-34.11c.46-.4.95-.78,1.54-1.08.04-.02.08-.04.11-.05-.88-.27-1.78-.46-2.69-.56-1.5-.17-3.03-.12-4.53.12-3,.51-5.85,1.77-8.37,3.47-.97.66-1.9,1.39-2.78,2.17.83.44,1.66.88,2.49,1.31,2.46,1.27,4.95,2.48,7.46,3.62.1-.17.2-.35.31-.52,1.22-2.02,2.53-3.99,4.02-5.84.75-.93,1.54-1.83,2.45-2.63Zm-27.49,24.75c-.18,1.48-.26,2.98-.22,4.47.87.28,1.74.56,2.61.84,2.53.84,5.04,1.7,7.55,2.62.57-1.74,1.2-3.45,1.86-5.15.73-1.89,1.51-3.76,2.32-5.61-2.25-1.02-4.5-2.04-6.76-3.04l-5.22-2.32c-1.04,2.64-1.79,5.39-2.14,8.19Zm6.94-16.6c-1.75,2.25-3.19,4.72-4.34,7.32l5.27,2.24c2.28.97,4.56,1.92,6.85,2.87.9-2,1.85-3.98,2.86-5.92.76-1.48,1.55-2.94,2.38-4.37-.39-.2-.77-.39-1.16-.59-2.05-1.07-4.08-2.17-6.1-3.28-.93-.51-1.85-1.04-2.77-1.56-1.08,1.03-2.08,2.14-3,3.31Zm13.81,2.52c-.82,1.44-1.61,2.91-2.36,4.39-.97,1.94-1.88,3.91-2.74,5.9,1.64.68,3.28,1.35,4.92,2.03,1.48.61,2.97,1.21,4.45,1.82.85-1.91,1.65-3.84,2.4-5.79.58-1.49,1.13-2.98,1.63-4.49-1.35-.58-2.69-1.17-4.03-1.78-1.44-.67-2.87-1.36-4.29-2.07Zm-.86,13.88c-1.61-.73-3.21-1.47-4.82-2.2-1.46,3.54-2.73,7.16-3.75,10.84,1.38.52,2.75,1.05,4.11,1.61,1.25.52,2.5,1.05,3.74,1.6.9-1.53,1.74-3.09,2.56-4.67.88-1.7,1.72-3.43,2.52-5.18-1.45-.67-2.9-1.34-4.35-2Zm15.02,15.93c-.69.86-1.42,1.69-2.19,2.49.5.26,1.01.52,1.51.78.64.33,1.27.66,1.9,1,.85-.63,1.66-1.32,2.43-2.05,2.1-1.99,3.87-4.34,5.21-6.92-1.53-.75-3.07-1.49-4.61-2.23-1.16,2.45-2.56,4.79-4.25,6.93Zm7.52-20.81c-.01,1.13-.09,2.25-.22,3.37-.19,1.58-.5,3.14-.92,4.68-.29,1.07-.64,2.13-1.02,3.17,1.61.62,3.22,1.25,4.84,1.87,1.02-2.72,1.6-5.61,1.7-8.53.04-1.02.01-2.04-.07-3.06-.77-.26-1.55-.53-2.32-.8-.66-.23-1.32-.47-1.99-.7Zm-4.13-14.85c1.81,2.6,2.98,5.62,3.59,8.73.21,1.07.35,2.15.44,3.24.98.28,1.96.56,2.94.83.33.09.66.18.99.26-.27-1.33-.65-2.64-1.12-3.92-1.22-3.28-3.09-6.34-5.5-8.92-1.21-1.29-2.54-2.46-3.98-3.48-.52-.37-1.06-.73-1.61-1.06,1.65,1.17,3.1,2.64,4.25,4.31Zm-7.64,40.09c-.89.76-1.82,1.48-2.8,2.14-1.9,1.25-3.98,2.29-6.19,2.98,2.81-.17,5.59-.77,8.21-1.81,1.2-.47,2.36-1.02,3.48-1.66-.18-.11-.36-.23-.55-.34-.72-.44-1.44-.87-2.16-1.3Zm15.27,24.51l-1.51,14.35h4.42l.23-2.23h-2.03l1.28-12.12h-2.38Zm-31.49-25.95c1.37-1.7,2.6-3.55,3.76-5.45-1.14-.57-2.29-1.12-3.45-1.66-1.27-.57-2.55-1.12-3.83-1.66-.57,2.23-1.05,4.48-1.32,6.72-.13,1.13-.21,2.26-.16,3.34.03.53.1,1.06.23,1.49.07.22.15.4.24.52.09.13.16.17.22.2.06.02.14.04.29,0,.15-.02.34-.09.54-.2.4-.2.82-.52,1.22-.87.8-.71,1.55-1.55,2.26-2.44Zm13.67-.06c-.4-.23-.79-.47-1.19-.7-1.98-1.15-4-2.24-6.02-3.31-.24-.13-.49-.25-.74-.38-1.23,2-2.54,3.96-4.05,5.81-.78.93-1.6,1.84-2.57,2.67-.22.18-.45.36-.69.54,1.8.34,3.68.33,5.51,0,2.82-.5,5.52-1.69,7.94-3.32.62-.41,1.22-.85,1.81-1.31Zm-11.19-55.55c-3.49.5-6.88,1.54-10.05,3.04-.28.13-.4.46-.28.74.12.29.46.42.75.3,3.12-1.34,6.42-2.21,9.77-2.57,3.35-.36,6.74-.22,10.03.42,3.29.64,6.48,1.76,9.42,3.32,2.95,1.56,5.65,3.55,8,5.89.01.01.02.02.04.03.54.5,1.38.47,1.88-.07.5-.54.47-1.38-.07-1.88h0c-2.62-2.44-5.61-4.46-8.81-6.01-3.2-1.55-6.63-2.61-10.12-3.16-3.5-.54-7.07-.57-10.55-.06Zm13.87,193.57c.08-.16.13-.3.13-.42,0-.1,0-.19-.03-.28-.02-.08-.04-.16-.07-.22-.07-.13-.18-.23-.33-.3-.15-.07-.35-.1-.6-.1h-.86l-.58,3.11h.58l.22-1.21.6,1.21h.71l-.63-1.15c.2-.03.37-.1.52-.22.15-.12.27-.26.35-.42Zm-.46-.33c-.02.13-.07.24-.15.31-.08.07-.16.12-.25.15-.09.02-.17.04-.24.04h-.37l.16-.92h.33c.15,0,.27.03.37.08.1.05.15.14.15.27v.08Zm-29.5-50.6c.57,1.7.58,5.37.58,5.52,0,.07-.08,1.79.48,4.14l.09.29c-.5,1.67-.49,3.81.03,5.85.68,2.64,2.27,5.13,3.8,7.06.04.43.31,3.07,1.43,5.75,1.61,3.83,4.22,5.96,7.56,6.15h.52c.39-2.3.16-4.17-.21-5.6l-.02-.09c-.35-1.34-.74-2.85-.28-4.4,1.23-4.13,3.48-6.03,7.51-6.36,2.74-.23,5.35-.53,7.11-1.68.16-.11.53-.35.53-.35,1.26-.84,1.64-1.09,3.1-1.18,2.19-.13,10.4,2.51,10.4,2.51-.3-.16-7.44-3.86-10.47-3.67-1.77.11-2.37.51-3.68,1.38-.16.11-.33.22-.52.35-1.66,1.09-4.5,1.32-6.57,1.5-4.3.35-6.89,2.38-8.31,6.52-1.31-.4-1.9-.89-2.08-1.06-.09-.63-.28-1.07-.61-1.41-.28-.29-.8-.43-1.58-.43-1.88-1.97-2.7-6.49-2.71-6.54,0-.03-.57-3.2,2.51-5.41,3.44-2.47,1.11-7.34,1.09-7.37,0,0-.1,3.71-2.54,5.86-3.5,3.09-3.24,6.71-3.23,6.85.15,4.09,2.4,6.08,3.41,6.77-.46.08-.94.17-1.27.24,0,0,2.97.04,3.49.85.1.16.21.37.28.77.39,2.1,2.09,2.97,2.09,2.97-.02-.06-.4-1.04-.67-2,.38.19.9.4,1.59.6-.54,1.85-.09,3.6.27,5l.02.09c.22.86.4,1.69.4,2.75-1.89-.27-5.81-1.59-7.13-7.64,1.11,1.22,1.97,1.97,2.05,2.04,0,0-1.04-1.31-2.27-3.26h0s-.01-.02-.01-.02c-1.73-2.74-3.82-6.73-3.9-10.07-.03-1.18.55-2.99,1.37-5.28.48-1.34.92-2.89,1.51-4.52,1.65-4.54.44-8.03.32-8.72,0,0,.29,5.16-3.09,12.49-.13-.83-.18-1.56-.23-2.46-.04-.68-.09-1.45-.18-2.42-.16-1.78-.62-3.17-1.04-4.4-.34-1.02-.64-1.9-.69-2.78-.14-3.53.39-5.93,1.56-7.16.86-.9,1.79-1.02,2.05-1.04.04,0,.07,0,.1,0,6.46-.4,12.76,15.45,12.76,15.45-.01-.04-1.33-4.25-3.51-8.36-3-5.67-6.13-8.44-9.27-8.25h0s-.06,0-.15,0c-.47.03-1.68.22-2.8,1.38-1.49,1.55-2.25,4.67-2.02,8.37.11,1.76.33,2.42.83,3.88l.19.56Zm38.87,44.6c0-.57-.13-1.08-.39-1.54-.26-.46-.61-.82-1.06-1.07-.45-.25-.93-.38-1.46-.38-.61,0-1.19.12-1.74.37-.55.25-1.02.58-1.42,1.01-.4.42-.72.91-.96,1.46-.13.3-.23.58-.3.85-.07.27-.1.55-.1.83,0,.26.04.52.11.77.07.25.18.49.32.71.29.46.67.82,1.14,1.07.47.26.96.38,1.49.38s1.01-.1,1.5-.31c.5-.21.95-.49,1.35-.84.4-.35.72-.73.94-1.12h-1.86c-.16.16-.4.3-.71.42-.17.07-.34.12-.5.15-.16.04-.32.05-.47.05-.19,0-.37-.03-.54-.09-.17-.06-.33-.14-.48-.26-.29-.22-.48-.56-.58-1.02h5.42c.19-.5.29-.98.29-1.45Zm-5.45-.02c0-.07.1-.21.28-.42.2-.23.45-.43.75-.62.16-.1.33-.18.5-.23.17-.05.35-.08.54-.08.39,0,.76.09,1.12.26.36.17.58.54.66,1.09h-3.85Zm-7.3-299.52c1.12,0,1.84-.15,2.34-.64.87-.83,1.07-2.65,1.45-6.49.21-1.96.33-3.29.33-4.28,0-2.11-.43-3.18-2.81-3.18-1.12,0-1.86.23-2.36.79-.89.93-1.08,2.85-1.45,6.31-.19,1.9-.33,3.31-.33,4.36,0,2.11.45,3.12,2.83,3.12Zm-.06-7.26c.48-4.69.46-4.94,1.22-4.94.43,0,.58.14.58.87,0,.68-.14,1.92-.37,4.11-.5,4.73-.48,4.96-1.24,4.96-.39,0-.56-.12-.56-.85,0-.68.14-1.92.37-4.14Zm12.88,314.77c.23-.09.42-.21.58-.36.16-.15.28-.31.37-.49.05-.09.08-.18.11-.26.03-.09.04-.17.05-.26,0-.08.01-.16.01-.24,0-.2-.03-.38-.08-.54-.06-.16-.15-.31-.27-.43-.12-.12-.28-.22-.48-.29-.2-.07-.43-.1-.72-.1h-.66l-.58,3.11h.9c.28,0,.53-.05.76-.14Zm-.99-.42l.36-1.98h.17c.67,0,1.01.26,1.01.79v.16c-.03.17-.08.32-.16.46-.08.13-.19.24-.32.33-.07.05-.13.09-.2.12-.07.03-.14.06-.22.08-.15.04-.31.06-.47.06h-.16Zm-17.54-10.09l-.15.89c.56,0,1.01-.16,1.35-.48.34-.32.56-.78.66-1.38l.31-1.61h-1.7l-.29,1.68h.73c-.05.32-.15.54-.3.67-.15.13-.35.21-.61.23Zm-17.41-.25h-1.67l-1.3,7h1.67l1.3-7Zm.42-2.33h-1.68l-.26,1.53h1.68l.26-1.53Zm13.61,12.43c.05.14.1.25.14.31.13.19.29.33.49.42.2.09.41.14.64.14.25,0,.49-.05.72-.15.24-.1.44-.24.63-.42.18-.18.33-.38.43-.61.05-.11.09-.23.12-.35.03-.12.04-.24.04-.37s-.02-.27-.06-.44c-.05-.19-.14-.35-.26-.48-.13-.13-.28-.23-.46-.3-.18-.07-.37-.1-.58-.1-.13,0-.28.02-.42.05-.15.03-.29.08-.41.15-.13.06-.25.14-.36.24-.18.16-.33.33-.43.49-.11.16-.18.32-.23.47-.05.17-.07.32-.07.46,0,.09,0,.18.02.26.01.08.03.16.06.24Zm.54-.8c.02-.1.05-.18.09-.26.02-.05.04-.09.06-.12.02-.04.05-.07.07-.11.08-.1.17-.19.27-.27.11-.08.23-.14.36-.19.13-.05.26-.07.39-.07.14,0,.26.03.37.08.11.06.2.13.27.21.07.09.12.18.15.29.03.11.05.21.05.31,0,.21-.06.41-.18.6-.12.19-.28.34-.47.46-.2.11-.4.17-.61.17h-.14c-.23-.04-.4-.13-.52-.29-.06-.08-.11-.17-.14-.27-.03-.09-.05-.2-.05-.31,0-.07.01-.16.03-.25Zm.1-2.3l1.72-9.33h-1.67l-.57,3.05c-.48-.62-1.14-.93-1.99-.93-.29,0-.57.03-.83.09-.27.06-.53.15-.78.27-.51.25-.96.58-1.35.99-.39.41-.7.89-.93,1.42-.12.28-.21.55-.27.82-.06.27-.09.53-.09.8,0,.46.08.87.23,1.26.15.38.36.7.63.96.27.26.57.46.92.59.35.14.71.2,1.09.2.46,0,.91-.1,1.36-.3.45-.2.85-.5,1.2-.91l-.2,1.01h1.55Zm-2.2-1.78c-.4.24-.83.36-1.3.36-.22,0-.42-.04-.6-.13-.18-.09-.35-.22-.52-.38-.3-.32-.46-.7-.46-1.14l.02-.3c.08-.51.27-.93.55-1.25.29-.33.61-.56.98-.71.37-.15.69-.22.98-.22s.56.07.81.2c.25.14.45.32.59.57.15.24.22.52.22.83,0,.42-.11.83-.34,1.22-.23.4-.54.71-.94.95Zm27.5-302.09l-.54-14.43h-2.79l-3.54,14.43h2.38l.45-2.13h1.57v2.13h2.48Zm-2.5-7.82v3.35h-1.03l.7-3.33.37-1.92-.04,1.9Zm-15.71,306.35c.18-.14.37-.21.57-.21.32,0,.5.16.54.49h1.61l.02-.31c0-.57-.19-1.01-.57-1.33-.18-.16-.39-.28-.62-.36-.23-.08-.48-.12-.75-.12-.34,0-.67.06-1,.18-.33.12-.63.29-.89.51-.26.22-.47.48-.62.77-.17.32-.25.64-.25.96,0,.44.11.79.34,1.03.23.24.51.43.83.56l.95.37c.3.12.46.26.49.42v.2c0,.22-.09.4-.26.55-.18.15-.38.22-.62.22-.11,0-.21-.02-.29-.05-.08-.04-.16-.09-.24-.17-.14-.15-.2-.33-.2-.56h-1.73l-.02.36c0,.26.03.49.09.7.06.2.15.39.27.55.24.31.52.52.85.64.32.11.64.17.96.17.21,0,.41-.02.6-.07.19-.05.38-.12.57-.21.37-.18.69-.4.96-.67.27-.27.47-.57.62-.9.15-.33.22-.65.22-.96,0-.2-.03-.37-.08-.53-.06-.16-.14-.29-.24-.41-.21-.23-.44-.4-.68-.5-.13-.05-.27-.1-.42-.15-.15-.05-.31-.1-.48-.15-.37-.11-.58-.2-.65-.25-.07-.07-.12-.18-.15-.31,0-.09.02-.17.07-.25.05-.08.12-.15.21-.22Zm-14.6-102.76c.3,0,.55.05.83.13l.48-1.33c-.38-.13-.76-.2-1.36-.2-2.29,0-2.44,1.33-3.02,6.82-.18,1.74-.38,3.7-.38,4.61,0,1.61.38,2.64,2.11,2.64.5,0,.93-.08,1.26-.18l-.2-1.26c-.28.08-.6.1-.86.1-.68,0-.86-.5-.86-1.36,0-.78.2-2.62.38-4.4.5-4.91.58-5.56,1.61-5.56Zm-4.65,52.3c1.08-.07,3.95,3.88,4.8,6.59.5,1.57.79,3.74.95,4.91l.02.13c.15,1.17.39,2.93,2.11,4.45.07.05.15.13.25.22,1.14,1,4.15,3.66,8.7,3.38h0c2.22-.14,4.51-.97,6.81-2.5.06-.05,5.85-4.62,11.79-5.2,0,0-6.6-.06-12.39,4.24-.02.02-2.39,1.66-5.46,1.85-2.54.16-4.82-.71-6.78-2.59-.03-.03-3.05-2.87-4.24-7.26-.12-.45-2.96-11.08-6.87-10.84-.63.04-1.14.29-1.52.74-.66.78-.88,2.13-.67,4,.03.52.08.94.12,1.3.07.66.13,1.24.1,2.16,0,0,1.4-2.19,1.28-4.06-.08-1.29.5-1.5,1-1.53Zm14.17-54.09l-1.51,14.35h4.42l.23-2.23h-2.03l1.28-12.12h-2.38Zm-5.34,14.45c2.82,0,3.1-1.46,3.6-6.17l.5-4.66h-3.47l-.25,2.19h1.26l-.28,2.52c-.4,3.6-.38,4.13-1.28,4.13-.68,0-.91-.33-.91-1.51s.2-3.02.5-5.94c.68-6.52.7-7.15,2.19-7.15.81,0,1.38.13,1.81.25l.73-2.16c-.63-.2-1.56-.35-2.64-.35-1.23,0-2.06.23-2.59.78-1.08,1.08-1.28,3.6-1.79,8.43-.3,2.72-.5,4.73-.5,6.14,0,2.67.58,3.5,3.12,3.5Zm25.46-149.71l.17-.79c.61.61,1.45.71,2.49.6.92-.1,1.65-.43,2.07-1.05.69-1,.58-2.72-.01-8.32-.59-5.63-.79-7.24-1.68-8.05-.5-.49-1.23-.73-2.15-.64-.85.09-1.91.42-2.34,1.14l-.73-6.93-2.82.3,2.51,23.89,2.48-.16Zm.03-15.26c1.17-.12,1.24.51,1.83,6.17.61,5.79.66,6.27-.51,6.39-1.2.13-1.32-.72-1.89-6.14-.56-5.32-.63-6.3.57-6.43Zm9.56,124.79c-.25-.19-.61-.14-.8.11-2.88,3.78-6.03,7.21-10.08,9.63-4.05,2.43-8.57,4.06-13.21,4.78-4.64.74-9.42.58-13.97-.47-4.56-1.05-8.9-2.98-12.72-5.65,0,0-.02-.01-.03-.02-.61-.4-1.44-.23-1.84.38s-.23,1.44.38,1.84h0c4.17,2.75,8.86,4.68,13.73,5.67,4.87.99,9.92,1.02,14.78.12,4.86-.89,9.54-2.72,13.69-5.36,4.16-2.64,7.34-6.27,10.2-10.25.18-.25.13-.6-.12-.79Zm-21.98,25.62c-1.12,0-1.86.23-2.36.79-.89.93-1.08,2.85-1.45,6.31-.19,1.9-.33,3.31-.33,4.36,0,2.11.45,3.12,2.83,3.12,1.12,0,1.84-.15,2.34-.64.87-.83,1.07-2.65,1.45-6.49.21-1.96.33-3.29.33-4.28,0-2.11-.43-3.18-2.81-3.18Zm.06,7.36c-.5,4.73-.48,4.96-1.24,4.96-.39,0-.56-.12-.56-.85,0-.68.14-1.92.37-4.14.48-4.69.46-4.94,1.22-4.94.43,0,.58.14.58.87,0,.68-.14,1.92-.37,4.11Zm10.66-49.61c.44-1.42.81-2.86,1.06-4.33.22-1.24.36-2.49.44-3.75-.87-.32-1.74-.63-2.6-.96-2.17-.81-4.33-1.65-6.47-2.52-.28-.11-.56-.23-.83-.34-1.02,3.54-2.26,7.01-3.67,10.41,2.14.87,4.28,1.73,6.42,2.58l4.61,1.83c.39-.96.74-1.93,1.05-2.92Zm-36.81,37.69h-1.43l-1.76,16.74c-.13,1.51.08,2.32,1.51,2.32.08,0,.38,0,.48-.03l.13-1.38h-.23c-.45,0-.5-.15-.43-.93l1.74-16.71Zm35.54,8.43c.06-.5.1-1.03.1-1.43,0-1.49-.54-2.32-2.67-2.32h-2.75l-1.51,14.35h3.2c2.01,0,2.73-1.01,3.02-3.76.1-.81.15-1.49.15-2.03,0-.93-.19-1.47-.77-1.67.89-.37,1.07-1.51,1.24-3.14Zm-2.91,6.53c-.17,1.67-.23,1.9-.87,1.9h-.46l.39-3.89h.43c.45,0,.62.19.62.79,0,.23-.06.89-.1,1.2Zm.58-6.12c-.15,1.47-.25,1.8-.85,1.8h-.43l.39-3.74h.39c.43,0,.58.15.58.74,0,.27-.02.56-.08,1.2Zm7.88-4.24h-2.79l-3.54,14.43h2.38l.45-2.13h1.57v2.13h2.48l-.54-14.43Zm-1.96,6.6v3.35h-1.03l.7-3.33.37-1.92-.04,1.9Zm-37.33,7.95c2.44,0,2.52-1.23,3.12-6.92.23-2.06.38-3.55.38-4.53,0-1.84-.5-2.67-2.27-2.67-2.39,0-2.52,1.36-3.1,6.85-.18,1.61-.38,3.75-.38,4.63,0,1.89.5,2.64,2.24,2.64Zm-.43-7.15c.5-4.93.53-5.56,1.61-5.56.65,0,.88.3.88,1.36,0,.81-.13,2.16-.35,4.35-.53,5.13-.55,5.66-1.66,5.66-.63,0-.88-.28-.88-1.31,0-.81.18-2.21.4-4.51Zm-1.89-270c1.25-2.64,2.8-5.15,4.65-7.41.92-1.13,1.92-2.19,2.99-3.18-.87-.5-1.74-1-2.61-1.51-.8-.46-1.59-.93-2.38-1.4-1.09.78-2.13,1.63-3.09,2.56-2.42,2.35-4.39,5.17-5.79,8.23,2.03.9,4.07,1.77,6.1,2.65l.13.06Zm8.47-11.34c.97-.84,2-1.63,3.08-2.33,2.6-1.71,5.52-2.98,8.61-3.52,2.51-.44,5.13-.33,7.59.39-2.78-1.03-5.74-1.61-8.71-1.69-3.56-.1-7.15.53-10.49,1.81-1.77.69-3.46,1.57-5.05,2.61.67.38,1.34.76,2.01,1.14.98.54,1.97,1.08,2.96,1.6Zm-11.91,25c.06-1.4.21-2.8.44-4.17.26-1.55.64-3.07,1.1-4.57.4-1.31.88-2.59,1.42-3.85l-.12-.05c-2.03-.88-4.06-1.77-6.09-2.64-.58,1.48-1.04,3-1.36,4.55-.36,1.74-.53,3.52-.53,5.29,0,1.33.11,2.65.32,3.96.8.24,1.59.48,2.39.73.81.25,1.62.5,2.43.75Zm40.07-23.91c1.81,2.6,2.98,5.62,3.59,8.73.21,1.07.35,2.15.44,3.24.98.28,1.96.56,2.94.83.33.09.66.18.99.26-.27-1.33-.65-2.64-1.12-3.92-1.22-3.28-3.09-6.34-5.5-8.92-1.21-1.29-2.54-2.46-3.98-3.48-.52-.37-1.06-.73-1.61-1.06,1.65,1.17,3.1,2.64,4.25,4.31Zm-37.06,37.55c-1.49-2.6-2.36-5.48-2.77-8.37-.19-1.33-.27-2.67-.27-4.01-.92-.3-1.83-.61-2.75-.9-.6-.19-1.2-.37-1.8-.55.36,1.74.89,3.43,1.58,5.06,1.37,3.24,3.39,6.18,5.87,8.62.05.05.1.1.15.14Zm29.98-29.52c-.03.12-.07.24-.1.36,2.5.89,5.02,1.72,7.55,2.5.61.19,1.23.37,1.85.55-.03-.82-.09-1.63-.2-2.45-.39-2.96-1.3-5.87-2.87-8.43-.8-1.27-1.76-2.44-2.88-3.44-.66-.58-1.36-1.11-2.11-1.57,0,0,0,.01,0,.02.19.63.26,1.25.3,1.86.06,1.23-.03,2.42-.17,3.61-.29,2.37-.79,4.69-1.38,6.99Zm-5.47-9.64c-1.47,1.79-2.76,3.73-3.98,5.72-.09.14-.17.29-.25.43,1.39.63,2.79,1.24,4.2,1.82,1.31.52,2.62,1.02,3.94,1.51.03-.08.05-.16.08-.25.68-2.22,1.27-4.47,1.64-6.74.17-1.13.3-2.28.28-3.4-.02-.56-.07-1.11-.21-1.61-.14-.5-.38-.92-.7-1.06-.32-.15-.8-.06-1.27.18-.47.23-.92.56-1.35.92-.86.73-1.64,1.59-2.38,2.47Zm-5.23,53.37c17.89,0,32.4-14.51,32.4-32.4s-14.51-32.4-32.4-32.4-32.4,14.51-32.4,32.4,14.51,32.4,32.4,32.4Zm-29.38-30h0c-.08-1.11-.11-2.22-.06-3.32.06-1.9.32-3.8.75-5.65.42-1.85,1.03-3.66,1.81-5.39,2.13-4.86,5.64-9.07,9.97-12.12,0,0,0,0,0,0,1.86-1.31,3.88-2.41,6-3.24,3.52-1.42,7.32-2.14,11.12-2.1,3.81.03,7.61.82,11.12,2.3,3.52,1.48,6.75,3.66,9.46,6.37,2.71,2.71,4.9,5.97,6.38,9.53.77,1.85,1.34,3.77,1.72,5.74,0,0,0,0,0,0,.05.28.1.56.15.84,0,.02,0,.04.01.07.04.27.08.55.12.82,0,.01,0,.02,0,.03.16,1.26.25,2.54.25,3.81,0,1.94-.21,3.89-.6,5.79-.4,1.91-.98,3.77-1.74,5.57-1.53,3.58-3.78,6.88-6.58,9.61-1.32,1.28-2.76,2.43-4.29,3.45,0,0,0,0,0,0-1.73,1.15-3.59,2.12-5.52,2.89-3.65,1.42-7.58,2.14-11.51,2.05-3.92-.09-7.81-.98-11.38-2.55-1.78-.8-3.48-1.77-5.07-2.9-1.59-1.13-3.05-2.43-4.38-3.84-2.64-2.85-4.69-6.22-6.01-9.82-.94-2.56-1.52-5.24-1.72-7.94Zm51.29-6.91c-.01,1.13-.09,2.25-.22,3.37-.19,1.58-.5,3.14-.92,4.68-.29,1.07-.64,2.13-1.02,3.17,1.61.62,3.22,1.25,4.84,1.87,1.02-2.72,1.6-5.61,1.7-8.53.04-1.02.01-2.04-.07-3.06-.77-.26-1.55-.53-2.32-.8-.66-.23-1.32-.47-1.99-.7Zm-12.26,131.41l2.83,8.95h1.82l-13.2-41.73h0c-.13-.43-.27-.86-.4-1.29-18.45-4.6-30.84,14.92-49.29,10.31,2.24,11.78,4.48,23.55,6.72,35.33,19.36,4.83,32.56-14.85,51.53-11.57Zm-15.73-107.61c1.37-1.7,2.6-3.55,3.76-5.45-1.14-.57-2.29-1.12-3.45-1.66-1.27-.57-2.55-1.12-3.83-1.66-.57,2.23-1.05,4.48-1.32,6.72-.13,1.13-.21,2.26-.16,3.34.03.53.1,1.06.23,1.49.07.22.15.4.24.52.09.13.16.17.22.2.06.02.14.04.29,0,.15-.02.34-.09.54-.2.4-.2.82-.52,1.22-.87.8-.71,1.55-1.55,2.26-2.44Zm5.45-18.92c-1.61-.73-3.21-1.47-4.82-2.2-1.46,3.54-2.73,7.16-3.75,10.84,1.38.52,2.75,1.05,4.11,1.61,1.25.52,2.5,1.05,3.74,1.6.9-1.53,1.74-3.09,2.56-4.67.88-1.7,1.72-3.43,2.52-5.18-1.45-.67-2.9-1.34-4.35-2Zm10.23,17.09c.94-.9,1.82-1.86,2.64-2.87,1.58-1.94,2.93-4.08,4.06-6.33l-4.45-2.1c-2.08-.98-4.17-1.96-6.26-2.92-.78,1.78-1.6,3.54-2.47,5.28-.78,1.56-1.61,3.09-2.47,4.61,2.31,1.06,4.6,2.16,6.88,3.29.69.34,1.38.69,2.08,1.04Zm8.87-14.59c.44-1.42.81-2.86,1.06-4.33.22-1.24.36-2.49.44-3.75-.87-.32-1.74-.63-2.6-.96-2.17-.81-4.33-1.65-6.47-2.52-.28-.11-.56-.23-.83-.34-1.02,3.54-2.26,7.01-3.67,10.41,2.14.87,4.28,1.73,6.42,2.58l4.61,1.83c.39-.96.74-1.93,1.05-2.92Zm-4.08,13.43c-.69.86-1.42,1.69-2.19,2.49.5.26,1.01.52,1.51.78.64.33,1.27.66,1.9,1,.85-.63,1.66-1.32,2.43-2.05,2.1-1.99,3.87-4.34,5.21-6.92-1.53-.75-3.07-1.49-4.61-2.23-1.16,2.45-2.56,4.79-4.25,6.93Zm-14.16-29.82c-.82,1.44-1.61,2.91-2.36,4.39-.97,1.94-1.88,3.91-2.74,5.9,1.64.68,3.28,1.35,4.92,2.03,1.48.61,2.97,1.21,4.45,1.82.85-1.91,1.65-3.84,2.4-5.79.58-1.49,1.13-2.98,1.63-4.49-1.35-.58-2.69-1.17-4.03-1.78-1.44-.67-2.87-1.36-4.29-2.07Zm-11.26,23.44c-.35-.14-.71-.29-1.06-.43-2.14-.83-4.28-1.65-6.45-2.4-.71-.25-1.42-.49-2.13-.73.08,1.06.21,2.12.41,3.16.56,2.92,1.64,5.72,3.28,8.11,1.1,1.59,2.46,2.96,4.02,4.03-.04-.34-.07-.68-.08-1.01-.03-1.27.11-2.48.29-3.67.38-2.38,1-4.68,1.69-6.94.01-.04.02-.07.03-.11Zm18.01-34.11c.46-.4.95-.78,1.54-1.08.04-.02.08-.04.11-.05-.88-.27-1.78-.46-2.69-.56-1.5-.17-3.03-.12-4.53.12-3,.51-5.85,1.77-8.37,3.47-.97.66-1.9,1.39-2.78,2.17.83.44,1.66.88,2.49,1.31,2.46,1.27,4.95,2.48,7.46,3.62.1-.17.2-.35.31-.52,1.22-2.02,2.53-3.99,4.02-5.84.75-.93,1.54-1.83,2.45-2.63Zm3.17,44.91c-.89.76-1.82,1.48-2.8,2.14-1.9,1.25-3.98,2.29-6.19,2.98,2.81-.17,5.59-.77,8.21-1.81,1.2-.47,2.36-1.02,3.48-1.66-.18-.11-.36-.23-.55-.34-.72-.44-1.44-.87-2.16-1.3Zm-2.55-1.51c-.4-.23-.79-.47-1.19-.7-1.98-1.15-4-2.24-6.02-3.31-.24-.13-.49-.25-.74-.38-1.23,2-2.54,3.96-4.05,5.81-.78.93-1.6,1.84-2.57,2.67-.22.18-.45.36-.69.54,1.8.34,3.68.33,5.51,0,2.82-.5,5.52-1.69,7.94-3.32.62-.41,1.22-.85,1.81-1.31Zm-21.17-35.25c-1.75,2.25-3.19,4.72-4.34,7.32l5.27,2.24c2.28.97,4.56,1.92,6.85,2.87.9-2,1.85-3.98,2.86-5.92.76-1.48,1.55-2.94,2.38-4.37-.39-.2-.77-.39-1.16-.59-2.05-1.07-4.08-2.17-6.1-3.28-.93-.51-1.85-1.04-2.77-1.56-1.08,1.03-2.08,2.14-3,3.31Zm-6.94,16.6c-.18,1.48-.26,2.98-.22,4.47.87.28,1.74.56,2.61.84,2.53.84,5.04,1.7,7.55,2.62.57-1.74,1.2-3.45,1.86-5.15.73-1.89,1.51-3.76,2.32-5.61-2.25-1.02-4.5-2.04-6.76-3.04l-5.22-2.32c-1.04,2.64-1.79,5.39-2.14,8.19Zm63.1,128.72l-1.2-11.42-3.01.32,1.2,11.42,3.01-.32Zm-11.82-29.22c-.94,1.38-.71,3.56-.24,8.09.49,4.68.74,6.99,2.06,8.04.66.54,1.77.71,3,.58,1.33-.14,2.38-.54,2.88-1.23.98-1.29.75-3.47.25-8.25-.48-4.53-.7-6.68-1.88-7.8-.64-.64-1.79-.9-3.15-.76-1.36.14-2.4.6-2.93,1.33Zm3.23,1.52c1.23-.13,1.3.5,1.89,6.1.61,5.76.67,6.33-.57,6.46-1.23.13-1.29-.44-1.9-6.2-.59-5.6-.66-6.23.58-6.36Zm7.61,13.66c.66.51,1.74.68,2.84.57.92-.1,1.73-.31,2.28-.56l-.87-2.47c-.4.17-.93.29-1.31.33-1.33.14-1.46-.49-2.05-6.12-.57-5.38-.59-6.21.71-6.35.44-.05.89-.03,1.31.02l.34-2.85c-.52-.07-1.38-.05-2.2.04-1.33.14-2.37.6-2.87,1.33-.88,1.37-.72,3.5-.24,8.02.49,4.68.79,6.96,2.06,8.04ZM37.22,32.92c3.12-1.34,6.42-2.21,9.77-2.57,3.35-.36,6.74-.22,10.03.42,3.29.64,6.48,1.76,9.42,3.32,2.95,1.56,5.65,3.55,8,5.89.01.01.02.02.04.03.54.5,1.38.47,1.88-.07.5-.54.47-1.38-.07-1.88h0c-2.62-2.44-5.61-4.46-8.81-6.01-3.2-1.55-6.63-2.61-10.12-3.16-3.5-.54-7.07-.57-10.55-.06-3.49.5-6.88,1.54-10.05,3.04-.28.13-.4.46-.28.74.12.29.46.42.75.3Z"/></g></svg>